<?xml version="1.0" encoding="UTF-8"?>
<svg xmlns="http://www.w3.org/2000/svg" version="1.1" viewBox="0 0 195.6 96.7">
  <defs>
    <style>
      .cls-1 {
        fill: #39b54a;
      }

      .cls-2 {
        fill: #0071bc;
      }

      .cls-3 {
        fill: #141414;
      }

      .cls-4 {
        fill: #fff;
      }

      .cls-5 {
        isolation: isolate;
      }

      .cls-6 {
        fill: #c1272d;
      }

      .cls-7 {
        fill: #fcee21;
      }
    </style>
  </defs>
  <!-- Generator: Adobe Illustrator 28.7.1, SVG Export Plug-In . SVG Version: 1.2.0 Build 142)  -->
  <g>
    <g id="Layer_1">
      <g>
        <g>
          <g id="A">
            <path class="cls-3" d="M23.7,0c13.1,0,23.7,10.6,23.7,23.7,0,13.1-10.6,23.7-23.7,23.7C10.6,47.4,0,36.8,0,23.7,0,10.6,10.6,0,23.7,0Z"/>
          </g>
          <g class="cls-5">
            <path class="cls-1" d="M32.5,38.8l-2.8-7.7h-12.1l-2.6,7.7h-5.5l11.5-30.3h5.6l11.5,30.3h-5.5ZM23.7,13.1h-.1c0,.7-.2,1.5-.5,2.2l-4.1,11.7h9.3l-4.2-11.7c-.2-.7-.3-1.4-.4-2.2Z"/>
          </g>
        </g>
        <g>
          <g id="B">
            <path class="cls-3" d="M73.1,0c13.1,0,23.7,10.6,23.7,23.7s-10.6,23.7-23.7,23.7-23.7-10.6-23.7-23.7c0-13.1,10.6-23.7,23.7-23.7Z"/>
          </g>
          <g class="cls-5">
            <path class="cls-6" d="M83.3,30c0,2.5-1,4.8-2.9,6.4-2.1,1.7-4.8,2.6-7.6,2.4h-9.9V8.5h9.6c2.4-.1,4.8.5,6.9,1.9,1.6,1.2,2.6,3.1,2.5,5.1,0,1.6-.5,3.1-1.5,4.4-1,1.3-2.4,2.2-4,2.7h0c1.9.3,3.7,1.1,5.1,2.5,1.2,1.4,1.9,3.2,1.8,5ZM76.5,16.5c0-1.1-.5-2.1-1.3-2.8-1.2-.7-2.6-1.1-4-1h-3.3v8.4h3.2c1.4,0,2.9-.3,4-1.2.9-.9,1.4-2.1,1.4-3.4ZM78,29.9c0-1.3-.5-2.6-1.6-3.4-1.4-.9-3-1.3-4.7-1.2h-3.8v9.4h4.2c1.5,0,3-.4,4.2-1.3,1.1-.8,1.6-2.1,1.6-3.5Z"/>
          </g>
        </g>
        <g>
          <g id="Y">
            <path class="cls-3" d="M171.9,0c13.1,0,23.7,10.6,23.7,23.7s-10.6,23.7-23.7,23.7-23.7-10.6-23.7-23.7S158.8,0,171.9,0h0Z"/>
          </g>
          <g class="cls-5">
            <path class="cls-7" d="M174.3,27.9v11h-5v-10.8l-9.9-19.5h5.7l6.1,12.7c.2.4.3.7.4,1.1.1.3.2.6.2.8h0c.2-.7.4-1.3.7-1.9l6.4-12.7h5.3l-10,19.3Z"/>
          </g>
        </g>
        <g>
          <g id="X">
            <path class="cls-3" d="M122.5,0c13.1,0,23.7,10.6,23.7,23.7,0,13.1-10.6,23.7-23.7,23.7-13.1,0-23.7-10.6-23.7-23.7h0c0-13.1,10.6-23.7,23.7-23.7Z"/>
          </g>
          <g class="cls-5">
            <path class="cls-2" d="M129.6,38.8l-6.4-11c-.1-.2-.2-.5-.3-.8,0-.3-.1-.5-.2-.8h0c-.1.3-.2.5-.3.8,0,.3-.2.5-.3.8l-6.5,11h-6.1l10.1-15.2-9.3-15.1h6.2l5.4,10c.4.7.8,1.5,1,2.3h0c.3-.8.5-1.3.7-1.6s2.2-3.8,6.3-10.7h5.7l-9.5,15,9.6,15.3h-6Z"/>
          </g>
        </g>
      </g>
      <g>
        <g>
          <g id="A-2">
            <path class="cls-4" d="M23.7,49.4c13.1,0,23.7,10.6,23.7,23.7,0,13.1-10.6,23.7-23.7,23.7C10.6,96.7,0,86.1,0,73.1c0-13.1,10.6-23.7,23.7-23.7h0Z"/>
          </g>
          <g class="cls-5">
            <path class="cls-1" d="M32.5,88.2l-2.8-7.7h-12.1l-2.6,7.7h-5.5l11.5-30.3h5.6l11.5,30.3h-5.5ZM23.7,62.5h-.1c0,.7-.2,1.5-.5,2.2l-4.1,11.7h9.3l-4.2-11.7c-.2-.7-.3-1.4-.4-2.2Z"/>
          </g>
        </g>
        <g>
          <g id="B-2">
            <path class="cls-4" d="M73.1,49.4c13.1,0,23.7,10.6,23.7,23.7s-10.6,23.7-23.7,23.7-23.7-10.6-23.7-23.7h0c0-13.1,10.6-23.7,23.7-23.7Z"/>
          </g>
          <g class="cls-5">
            <path class="cls-6" d="M83.3,79.4c0,2.5-1,4.8-2.9,6.4-2.1,1.7-4.8,2.6-7.6,2.4h-9.9v-30.3h9.6c2.4-.1,4.8.5,6.9,1.9,1.6,1.2,2.6,3.1,2.5,5.1,0,1.6-.5,3.1-1.5,4.3-1,1.3-2.4,2.2-4,2.7h0c1.9.3,3.7,1.1,5.1,2.5,1.2,1.4,1.9,3.2,1.9,5ZM76.5,65.8c0-1.1-.5-2.1-1.3-2.8-1.2-.7-2.6-1.1-4-1h-3.3v8.4h3.2c1.4,0,2.9-.3,4-1.2.9-.9,1.4-2.1,1.4-3.4ZM78,79.2c0-1.3-.5-2.6-1.6-3.4-1.4-.9-3-1.3-4.7-1.2h-3.8v9.4h4.2c1.5,0,3-.4,4.2-1.3,1.1-.8,1.6-2.1,1.6-3.5Z"/>
          </g>
        </g>
        <g>
          <g id="Y-2">
            <path class="cls-4" d="M171.9,49.4c13.1,0,23.7,10.6,23.7,23.7s-10.6,23.7-23.7,23.7-23.7-10.6-23.7-23.7h0c0-13.1,10.6-23.7,23.7-23.7Z"/>
          </g>
          <g class="cls-5">
            <path class="cls-7" d="M174.3,77.2v11h-5v-10.9l-9.9-19.4h5.7l6.1,12.6c.2.4.3.7.4,1.1.1.3.2.6.2.8h0c.2-.7.4-1.3.7-1.9l6.4-12.7h5.3l-10,19.3Z"/>
          </g>
        </g>
        <g>
          <g id="X-2">
            <path class="cls-4" d="M122.5,49.4c13.1,0,23.7,10.6,23.7,23.7,0,13.1-10.6,23.7-23.7,23.7-13.1,0-23.7-10.6-23.7-23.7h0c0-13.1,10.6-23.7,23.7-23.7Z"/>
          </g>
          <g class="cls-5">
            <path class="cls-2" d="M129.6,88.2l-6.4-11c-.1-.2-.2-.5-.3-.8,0-.3-.1-.5-.2-.8h0c-.1.3-.2.5-.3.8,0,.3-.2.5-.3.8l-6.5,11h-6.1l10.1-15.2-9.3-15.1h6.2l5.4,10c.4.7.8,1.5,1,2.3h0c.3-.8.5-1.3.7-1.6s2.2-3.8,6.3-10.7h5.7l-9.5,15,9.6,15.3h-6Z"/>
          </g>
        </g>
      </g>
    </g>
  </g>
</svg>